<svg fill="#000000" xmlns="http://www.w3.org/2000/svg"  viewBox="0 0 50 50" width="150px" height="150px"><path d="M 42.128906 22.257813 C 42.136719 22.066406 42.144531 21.878906 42.144531 21.695313 C 42.144531 14.445313 36.242188 8.546875 28.992188 8.546875 C 23.984375 8.546875 19.410156 11.441406 17.214844 15.878906 C 16.078125 15.128906 14.75 14.722656 13.355469 14.722656 C 9.652344 14.722656 6.609375 17.609375 6.363281 21.253906 C 2.582031 22.628906 0 26.257813 0 30.332031 C 0 35.660156 4.339844 40 9.671875 40 L 41.097656 40 C 46.007813 40 50 36.007813 50 31.097656 C 50 26.539063 46.554688 22.769531 42.128906 22.257813 Z M 31 22 C 32.105469 22 33 22.894531 33 24 C 33 25.105469 32.105469 26 31 26 C 29.894531 26 29 25.105469 29 24 C 29 22.894531 29.894531 22 31 22 Z M 19 22 C 20.105469 22 21 22.894531 21 24 C 21 25.105469 20.105469 26 19 26 C 17.894531 26 17 25.105469 17 24 C 17 22.894531 17.894531 22 19 22 Z M 34.652344 34.757813 C 34.464844 34.921875 34.230469 35 34 35 C 33.722656 35 33.441406 34.882813 33.242188 34.652344 C 33.214844 34.621094 29.988281 31 25 31 C 19.976563 31 16.789063 34.617188 16.757813 34.652344 C 16.394531 35.070313 15.761719 35.117188 15.347656 34.757813 C 14.929688 34.394531 14.882813 33.761719 15.242188 33.34375 C 15.398438 33.167969 19.074219 29 25 29 C 30.925781 29 34.601563 33.167969 34.757813 33.347656 C 35.117188 33.761719 35.070313 34.394531 34.652344 34.757813 Z"/></svg>